<svg width="75" height="60" viewBox="0 0 75 60" fill="none" xmlns="http://www.w3.org/2000/svg">
<path d="M26.25 37.5H30V11.25H26.25C24.1793 11.25 22.5 12.9293 22.5 15V33.75C22.5 35.8207 24.1793 37.5 26.25 37.5ZM67.5 33.75V15C67.5 12.9293 65.8207 11.25 63.75 11.25H60V37.5H63.75C65.8207 37.5 67.5 35.8207 67.5 33.75ZM73.125 45H15V1.875C15 0.839062 14.1609 0 13.125 0H1.875C0.839062 0 0 0.839062 0 1.875V5.625C0 6.66094 0.839062 7.5 1.875 7.5H7.5V50.625C7.5 51.6609 8.33906 52.5 9.375 52.5H19.0945C18.8848 53.0895 18.75 53.7141 18.75 54.375C18.75 57.4816 21.2684 60 24.375 60C27.4816 60 30 57.4816 30 54.375C30 53.7141 29.8652 53.0895 29.6555 52.5H52.8445C52.6348 53.0895 52.5 53.7141 52.5 54.375C52.5 57.4816 55.0184 60 58.125 60C61.2316 60 63.75 57.4816 63.75 54.375C63.75 53.7141 63.6152 53.0895 63.4055 52.5H73.125C74.1609 52.5 75 51.6609 75 50.625V46.875C75 45.8391 74.1609 45 73.125 45ZM56.25 11.25V5.625C56.25 2.51836 53.7316 0 50.625 0H39.375C36.2684 0 33.75 2.51836 33.75 5.625V37.5H56.25V11.25ZM50.625 11.25H39.375V5.625H50.625V11.25Z" fill="#FF4242"/>
</svg>
