<svg width="69" height="60" viewBox="0 0 69 60" fill="none" xmlns="http://www.w3.org/2000/svg">
<path d="M34.2857 0C15.3375 0 3.55961e-10 15.3343 3.55961e-10 34.2857V40.7143C-1.0256e-05 41.5102 0.221617 42.2904 0.640047 42.9674C1.05848 43.6445 1.65718 44.1916 2.36906 44.5476L4.29536 45.5107C4.56469 53.5584 11.1725 60 19.2857 60H22.5C24.2752 60 25.7143 58.5609 25.7143 56.7857V33.2143C25.7143 31.4391 24.2752 30 22.5 30H19.2857C15.0881 30 11.2941 31.7249 8.57143 34.5036V34.2857C8.57143 20.1068 20.1068 8.57143 34.2857 8.57143C48.4646 8.57143 60 20.1068 60 34.2857V34.5036C57.2774 31.7249 53.4833 30 49.2857 30H46.0714C44.2962 30 42.8571 31.4391 42.8571 33.2143V56.7857C42.8571 58.5609 44.2962 60 46.0714 60H49.2857C57.399 60 64.0067 53.5583 64.2761 45.5107L66.2022 44.5476C66.9141 44.1917 67.5129 43.6445 67.9313 42.9675C68.3498 42.2904 68.5714 41.5102 68.5714 40.7143V34.2857C68.5714 15.3376 53.2371 0 34.2857 0Z" fill="#FF4444"/>
</svg>
