<svg width="69" height="60" viewBox="0 0 69 60" fill="none" xmlns="http://www.w3.org/2000/svg">
<path d="M34.2856 0C53.2204 0 68.5713 12.4714 68.5713 27.8571C68.5713 34.4946 65.7039 40.5817 60.9347 45.367C62.6168 52.1049 68.2097 58.121 68.2766 58.192C68.4209 58.3438 68.5174 58.5347 68.5542 58.7409C68.5911 58.947 68.5666 59.1595 68.484 59.3519C68.4013 59.5443 68.264 59.7083 68.0891 59.8235C67.9142 59.9387 67.7093 60.0001 67.4999 60C58.6258 60 51.9655 55.7478 48.6695 53.1187C44.2914 54.7674 39.4298 55.7143 34.2856 55.7143C15.3508 55.7143 -0.000137329 43.2429 -0.000137329 27.8571C-0.000137329 12.4714 15.3508 0 34.2856 0ZM31.0713 40.5054V42.8571C31.0713 44.0411 32.0302 45 33.2141 45H35.357C36.5409 45 37.4999 44.0411 37.4999 42.8571V40.4826C39.0293 40.3018 40.4838 39.7875 41.7561 38.9478C42.5891 38.3973 42.6695 37.192 41.9637 36.4862L39.6173 34.1397C39.1164 33.6388 38.3704 33.5719 37.7275 33.8679C37.3016 34.0634 36.8356 34.1652 36.3534 34.1652H31.9633C31.3391 34.1652 30.8329 33.6589 30.8329 33.0375C30.8329 32.5353 31.1704 32.0893 31.6525 31.9513L38.3583 30.0362C41.3383 29.1857 43.7168 26.7268 44.1052 23.6518C44.6476 19.3567 41.5566 15.6924 37.4999 15.2076V12.8571C37.4999 11.6732 36.5409 10.7143 35.357 10.7143H33.2141C32.0302 10.7143 31.0713 11.6732 31.0713 12.8571V15.2317C29.5418 15.4125 28.0874 15.9268 26.815 16.7665C25.982 17.317 25.9016 18.5223 26.6075 19.2281L28.9539 21.5746C29.4548 22.0754 30.2008 22.1424 30.8436 21.8464C31.2748 21.6493 31.7436 21.5478 32.2177 21.5491H36.6079C37.232 21.5491 37.7383 22.0554 37.7383 22.6768C37.7383 23.179 37.4008 23.625 36.9186 23.7629L30.2128 25.6781C27.2329 26.5299 24.8543 28.9875 24.4659 32.0625C23.9235 36.3562 27.0146 40.0205 31.0713 40.5054Z" fill="#FF4444"/>
</svg>
