<svg width="21" height="20" viewBox="0 0 21 20" fill="none" xmlns="http://www.w3.org/2000/svg">
<path d="M17.9787 0H2.26444C1.0814 0 0.121582 0.959821 0.121582 2.14286V17.8571C0.121582 19.0402 1.0814 20 2.26444 20H17.9787C19.1618 20 20.1216 19.0402 20.1216 17.8571V2.14286C20.1216 0.959821 19.1618 0 17.9787 0ZM15.7957 7.08929C15.8046 7.21429 15.8046 7.34375 15.8046 7.46875C15.8046 11.3393 12.8582 15.7991 7.47426 15.7991C5.81355 15.7991 4.27337 15.317 2.97872 14.4866C3.21533 14.5134 3.44301 14.5223 3.68408 14.5223C5.05462 14.5223 6.31355 14.058 7.31801 13.2723C6.0323 13.2455 4.95194 12.4018 4.5814 11.2411C5.0323 11.308 5.43855 11.308 5.90283 11.1875C4.56355 10.9152 3.55908 9.73661 3.55908 8.3125V8.27679C3.94747 8.49554 4.40283 8.62946 4.88051 8.64732C4.47892 8.38019 4.1497 8.0178 3.92224 7.59248C3.69478 7.16716 3.57615 6.69214 3.57694 6.20982C3.57694 5.66518 3.7198 5.16518 3.97426 4.73214C5.41622 6.50893 7.5814 7.66964 10.01 7.79464C9.5948 5.80804 11.0814 4.19643 12.8671 4.19643C13.7109 4.19643 14.4698 4.54911 15.0055 5.12054C15.6662 4.99554 16.3002 4.75 16.8627 4.41518C16.6439 5.09375 16.1841 5.66518 15.5769 6.02679C16.1662 5.96429 16.7377 5.79911 17.2644 5.57143C16.8671 6.15625 16.3671 6.67411 15.7957 7.08929Z" fill="#BDC4CD"/>
</svg>
