<svg width="21" height="20" viewBox="0 0 21 20" fill="none" xmlns="http://www.w3.org/2000/svg">
<path d="M10.126 4.87225C7.28771 4.87225 4.9983 7.16166 4.9983 10C4.9983 12.8383 7.28771 15.1277 10.126 15.1277C12.9644 15.1277 15.2538 12.8383 15.2538 10C15.2538 7.16166 12.9644 4.87225 10.126 4.87225ZM10.126 13.3337C8.29184 13.3337 6.79234 11.8387 6.79234 10C6.79234 8.16133 8.28737 6.6663 10.126 6.6663C11.9647 6.6663 13.4597 8.16133 13.4597 10C13.4597 11.8387 11.9603 13.3337 10.126 13.3337ZM16.6596 4.6625C16.6596 5.32746 16.124 5.85853 15.4635 5.85853C14.7986 5.85853 14.2675 5.32299 14.2675 4.6625C14.2675 4.00201 14.803 3.46647 15.4635 3.46647C16.124 3.46647 16.6596 4.00201 16.6596 4.6625ZM20.0558 5.87638C19.9799 4.27424 19.6139 2.85507 18.4402 1.68582C17.271 0.516568 15.8518 0.150619 14.2497 0.070289C12.5984 -0.0234297 7.64919 -0.0234297 5.99796 0.070289C4.40028 0.146156 2.98112 0.512105 1.8074 1.68136C0.633687 2.85061 0.272201 4.26978 0.191871 5.87192C0.0981524 7.52315 0.0981524 12.4724 0.191871 14.1236C0.267738 15.7258 0.633687 17.1449 1.8074 18.3142C2.98112 19.4834 4.39582 19.8494 5.99796 19.9297C7.64919 20.0234 12.5984 20.0234 14.2497 19.9297C15.8518 19.8538 17.271 19.4879 18.4402 18.3142C19.6095 17.1449 19.9754 15.7258 20.0558 14.1236C20.1495 12.4724 20.1495 7.52761 20.0558 5.87638ZM17.9225 15.8953C17.5744 16.7701 16.9006 17.4439 16.0214 17.7965C14.7049 18.3186 11.5809 18.1981 10.126 18.1981C8.67117 18.1981 5.54276 18.3142 4.2307 17.7965C3.35599 17.4484 2.68211 16.7745 2.32955 15.8953C1.8074 14.5788 1.9279 11.4549 1.9279 10C1.9279 8.54513 1.81186 5.41671 2.32955 4.10465C2.67765 3.22995 3.35153 2.55606 4.2307 2.2035C5.54722 1.68136 8.67117 1.80185 10.126 1.80185C11.5809 1.80185 14.7093 1.68582 16.0214 2.2035C16.8961 2.5516 17.57 3.22548 17.9225 4.10465C18.4447 5.42118 18.3242 8.54513 18.3242 10C18.3242 11.4549 18.4447 14.5833 17.9225 15.8953Z" fill="#BDC4CD"/>
</svg>
